<svg width="53" height="64" viewBox="0 0 53 64" fill="none" xmlns="http://www.w3.org/2000/svg">
<g clip-path="url(#clip0_211_11187)">
<path d="M51.8862 30.463H51.0357V26.6307C51.0357 25.2585 50.1112 24.1423 48.9749 24.1423H47.0244C46.7335 23.1936 45.9788 22.5144 45.0933 22.5144H43.1058C41.9695 22.5144 41.045 23.6307 41.045 25.0029V30.4632H11.9544V25.0029C11.9544 23.6307 11.0299 22.5144 9.89366 22.5144H7.90606C7.02052 22.5144 6.26595 23.1937 5.97493 24.1423H4.02465C2.8884 24.1423 1.96387 25.2587 1.96387 26.6307V30.463H1.11375C0.498737 30.463 0 31.0652 0 31.808C0 32.5507 0.498737 33.1529 1.11375 33.1529H1.96387V37.3693C1.96387 38.7415 2.8884 39.8577 4.02465 39.8577H5.97504C6.26595 40.8064 7.02063 41.4858 7.90617 41.4858H9.89377C11.03 41.4858 11.9545 40.3695 11.9545 38.9973V33.1529H41.0452V38.9973C41.0452 40.3695 41.9698 41.4858 43.106 41.4858H45.0935C45.979 41.4858 46.7337 40.8064 47.0246 39.8577H48.9751C50.1114 39.8577 51.0359 38.7415 51.0359 37.3693V33.1529H51.8865C52.5015 33.1529 53.0002 32.5507 53.0002 31.808C53.0002 31.0652 52.5014 30.463 51.8862 30.463ZM4.19137 26.8321H5.8454V37.1679H4.19137V26.8321ZM8.07279 38.7959V37.3693V26.6307V25.2041H9.72693V38.7958H8.07279V38.7959ZM44.9267 38.7959H43.2726V25.2041H44.9267V26.6306V37.3691V38.7959ZM47.1541 37.1679V26.8321H48.8083V37.1679H47.1541Z" fill="white"/>
</g>
<defs>
<clipPath id="clip0_211_11187">
<rect width="53" height="64" fill="white"/>
</clipPath>
</defs>
</svg>
