<svg width="53" height="64" viewBox="0 0 53 64" fill="none" xmlns="http://www.w3.org/2000/svg">
<path d="M34.3333 22.665C34.3185 22.5349 34.29 22.4066 34.2483 22.2825V22.155C34.1802 22.0093 34.0893 21.8754 33.9791 21.7583V21.7583L25.4791 13.2583C25.362 13.1481 25.2281 13.0573 25.0825 12.9892C25.0402 12.9832 24.9972 12.9832 24.955 12.9892C24.811 12.9066 24.6521 12.8536 24.4875 12.8333H15.9166C14.7895 12.8333 13.7085 13.2811 12.9114 14.0781C12.1144 14.8752 11.6666 15.9562 11.6666 17.0833V36.9167C11.6666 38.0438 12.1144 39.1248 12.9114 39.9219C13.7085 40.7189 14.7895 41.1667 15.9166 41.1667H30.0833C31.2105 41.1667 32.2915 40.7189 33.0885 39.9219C33.8855 39.1248 34.3333 38.0438 34.3333 36.9167V22.75C34.3333 22.75 34.3333 22.75 34.3333 22.665ZM25.8333 17.6642L29.5025 21.3333H27.25C26.8742 21.3333 26.5139 21.1841 26.2482 20.9184C25.9825 20.6527 25.8333 20.2924 25.8333 19.9167V17.6642ZM31.5 36.9167C31.5 37.2924 31.3507 37.6527 31.085 37.9184C30.8194 38.1841 30.459 38.3333 30.0833 38.3333H15.9166C15.5409 38.3333 15.1806 38.1841 14.9149 37.9184C14.6492 37.6527 14.5 37.2924 14.5 36.9167V17.0833C14.5 16.7076 14.6492 16.3473 14.9149 16.0816C15.1806 15.8159 15.5409 15.6667 15.9166 15.6667H23V19.9167C23 21.0438 23.4477 22.1248 24.2448 22.9219C25.0418 23.7189 26.1228 24.1667 27.25 24.1667H31.5V36.9167ZM26.2441 27.4108L21.5833 32.0858L19.7558 30.2442C19.489 29.9774 19.1272 29.8275 18.75 29.8275C18.3727 29.8275 18.0109 29.9774 17.7441 30.2442C17.4774 30.5109 17.3275 30.8727 17.3275 31.25C17.3275 31.6273 17.4774 31.9891 17.7441 32.2558L20.5775 35.0892C20.7092 35.2219 20.8658 35.3273 21.0385 35.3993C21.2111 35.4712 21.3963 35.5082 21.5833 35.5082C21.7703 35.5082 21.9555 35.4712 22.1281 35.3993C22.3007 35.3273 22.4574 35.2219 22.5891 35.0892L28.2558 29.4225C28.5226 29.1557 28.6724 28.7939 28.6724 28.4167C28.6724 28.0394 28.5226 27.6776 28.2558 27.4108C27.989 27.1441 27.6272 26.9942 27.25 26.9942C26.8727 26.9942 26.5109 27.1441 26.2441 27.4108V27.4108Z" fill="white"/>
</svg>
