<svg width="45" height="36" viewBox="0 0 45 36" fill="none" xmlns="http://www.w3.org/2000/svg">
<path d="M40.0392 30.627C40.0392 30.627 40 24.5 40.039 18.2684V17.3729C39.7975 16.5728 39.171 16 38.4358 16H36.7858C35.8425 16 35.075 16.9414 35.075 18.0987V22.7038H10.9244V18.0987C10.9244 16.9414 10.1569 16 9.21359 16H7.56351C6.82835 16 6.20192 16.5729 5.96032 17.3729L5.85278 28.3585C6.13901 28.3585 5.85278 28.3585 6.66207 28.3585C6.66207 28.9849 6.48945 29.5 7.00003 29.5L6.66207 28.3585H5.85278C5.85278 29.5157 5.85278 28.3585 5.85278 30L5.96041 30.627C6.20192 31.4271 6.82844 32 7.5636 32H9.21368C10.157 32 10.9245 31.0586 10.9245 29.9013V24.9722H35.0752V29.9013C35.0752 31.0586 35.8427 32 36.786 32H38.436C39.1712 32 39.7977 31.4271 40.0392 30.627ZM5.96032 17.3729L5.85278 19.6414V28.3585L5.96032 17.3729ZM7.70193 29.7315V28.5283V19.4716V18.2684H9.07517V29.7314L7.70193 29.7315ZM38.2975 29.7315H36.9243V18.2684H38.2975V19.4715V28.5281V29.7315Z" fill="#676D75"/>
</svg>
