<svg width="25" height="24" viewBox="0 0 25 24" fill="none" xmlns="http://www.w3.org/2000/svg">
<path fill-rule="evenodd" clip-rule="evenodd" d="M11.5111 1.21065C11.8722 0.929784 12.3778 0.929784 12.7389 1.21065L21.7389 8.21065C21.9825 8.4001 22.125 8.69141 22.125 9V20C22.125 20.7957 21.8089 21.5587 21.2463 22.1213C20.6837 22.6839 19.9207 23 19.125 23H5.125C4.32935 23 3.56629 22.6839 3.00368 22.1213C2.44107 21.5587 2.125 20.7957 2.125 20V9C2.125 8.69141 2.26747 8.4001 2.51106 8.21065L11.5111 1.21065ZM4.125 9.48908V20C4.125 20.2652 4.23036 20.5196 4.41789 20.7071C4.60543 20.8946 4.85978 21 5.125 21H19.125C19.3902 21 19.6446 20.8946 19.8321 20.7071C20.0196 20.5196 20.125 20.2652 20.125 20V9.48908L12.125 3.26686L4.125 9.48908Z" fill="#1F59DA"/>
<path fill-rule="evenodd" clip-rule="evenodd" d="M8.125 12C8.125 11.4477 8.57272 11 9.125 11H15.125C15.6773 11 16.125 11.4477 16.125 12V22C16.125 22.5523 15.6773 23 15.125 23C14.5727 23 14.125 22.5523 14.125 22V13H10.125V22C10.125 22.5523 9.67728 23 9.125 23C8.57272 23 8.125 22.5523 8.125 22V12Z" fill="#1F59DA"/>
</svg>
