<svg width="25" height="24" viewBox="0 0 25 24" fill="none" xmlns="http://www.w3.org/2000/svg">
<path d="M9.375 10H10.375C10.6402 10 10.8946 9.89464 11.0821 9.70711C11.2696 9.51957 11.375 9.26522 11.375 9C11.375 8.73478 11.2696 8.48043 11.0821 8.29289C10.8946 8.10536 10.6402 8 10.375 8H9.375C9.10978 8 8.85543 8.10536 8.66789 8.29289C8.48036 8.48043 8.375 8.73478 8.375 9C8.375 9.26522 8.48036 9.51957 8.66789 9.70711C8.85543 9.89464 9.10978 10 9.375 10ZM9.375 12C9.10978 12 8.85543 12.1054 8.66789 12.2929C8.48036 12.4804 8.375 12.7348 8.375 13C8.375 13.2652 8.48036 13.5196 8.66789 13.7071C8.85543 13.8946 9.10978 14 9.375 14H15.375C15.6402 14 15.8946 13.8946 16.0821 13.7071C16.2696 13.5196 16.375 13.2652 16.375 13C16.375 12.7348 16.2696 12.4804 16.0821 12.2929C15.8946 12.1054 15.6402 12 15.375 12H9.375ZM20.375 8.94C20.3646 8.84813 20.3445 8.75763 20.315 8.67V8.58C20.2669 8.47718 20.2028 8.38267 20.125 8.3L14.125 2.3C14.0423 2.22222 13.9478 2.15808 13.845 2.11C13.8152 2.10576 13.7849 2.10576 13.755 2.11C13.6534 2.05174 13.5412 2.01434 13.425 2H7.375C6.57935 2 5.81629 2.31607 5.25368 2.87868C4.69107 3.44129 4.375 4.20435 4.375 5V19C4.375 19.7956 4.69107 20.5587 5.25368 21.1213C5.81629 21.6839 6.57935 22 7.375 22H17.375C18.1706 22 18.9337 21.6839 19.4963 21.1213C20.0589 20.5587 20.375 19.7956 20.375 19V9C20.375 9 20.375 9 20.375 8.94ZM14.375 5.41L16.965 8H15.375C15.1098 8 14.8554 7.89464 14.6679 7.70711C14.4804 7.51957 14.375 7.26522 14.375 7V5.41ZM18.375 19C18.375 19.2652 18.2696 19.5196 18.0821 19.7071C17.8946 19.8946 17.6402 20 17.375 20H7.375C7.10978 20 6.85543 19.8946 6.66789 19.7071C6.48036 19.5196 6.375 19.2652 6.375 19V5C6.375 4.73478 6.48036 4.48043 6.66789 4.29289C6.85543 4.10536 7.10978 4 7.375 4H12.375V7C12.375 7.79565 12.6911 8.55871 13.2537 9.12132C13.8163 9.68393 14.5794 10 15.375 10H18.375V19ZM15.375 16H9.375C9.10978 16 8.85543 16.1054 8.66789 16.2929C8.48036 16.4804 8.375 16.7348 8.375 17C8.375 17.2652 8.48036 17.5196 8.66789 17.7071C8.85543 17.8946 9.10978 18 9.375 18H15.375C15.6402 18 15.8946 17.8946 16.0821 17.7071C16.2696 17.5196 16.375 17.2652 16.375 17C16.375 16.7348 16.2696 16.4804 16.0821 16.2929C15.8946 16.1054 15.6402 16 15.375 16Z" fill="#676D75"/>
</svg>
